<svg xmlns:xlink="http://www.w3.org/1999/xlink" enable-background="new 0 0 382.62 166.24" version="1.1" viewBox="0 0 382.62 166.24" xml:space="preserve" xmlns="http://www.w3.org/2000/svg" width="382.62"  height="166.24" >
                        <path class="st0" d="m382.97 60.17c0 33.23-26.94 60.17-60.17 60.17s-60.17-26.94-60.17-60.17 26.94-60.17 60.17-60.17 60.17 26.94 60.17 60.17" fill="#FDDA00"></path>
                        <path class="st2" d="m112.16 65.71c0 32.02-16.68 50.77-36.89 50.77-7.82 0-15.94-2.95-20.36-12.54-5.16 7.67-13.13 12.54-24.2 12.54-11.66 0-24.94-6.34-24.94-29.96v-25.69c-0.02-6.48-5.77-7.96-5.77-11.21v-0.44c0-1.47 1.18-2.8 2.95-3.1l18.89-2.81c3.69-0.44 5.9 0.15 5.9 3.69l-0.29 48.26c-0.15 7.82 2.65 12.84 7.97 12.84 10.77 0 16.23-16.08 16.23-29.52v-17.71c0-6.49-5.76-7.97-5.76-11.21v-0.44c0-1.47 1.18-2.8 3.1-3.1l17.26-3.1c3.69-0.59 6.05 0.44 6.05 3.98l-0.44 47.81c-0.15 8.27 2.21 13.29 8.12 13.29 10.33 0 20.81-16.08 20.81-31.44 0-12.69-13.43-13.43-13.43-24.79 0-5.46 3.69-9.15 9.59-9.15 9.45 0 15.21 8.42 15.21 23.03"></path>
                        <path class="st2" d="m124.54 112.49v-0.59c0-3.69 5.61-4.87 5.61-11.21v-33.36c0-6.49-5.61-8.12-5.61-11.36v-0.44c0-1.33 1.18-2.07 3.1-3.1l18.45-9.15c3.69-1.77 6.05 0.29 6.05 2.95v54.46c0 6.34 6.2 7.53 6.2 11.21v0.59c0 1.48-1.32 2.51-3.39 2.51h-27.15c-1.93-0.01-3.26-1.04-3.26-2.51m2.06-91.79c0-7.38 5.9-12.84 14.61-12.84s14.32 5.46 14.32 12.84c0 7.52-5.61 12.99-14.32 12.99s-14.61-5.47-14.61-12.99"></path>
                        <path class="st2" d="m168.95 112.49v-0.59c0-3.69 5.76-4.87 5.76-11.07v-72.61c0-6.64-5.76-8.12-5.76-11.21v-0.59c0-1.48 1.18-2.21 2.95-2.95l18.6-9.15c3.84-1.91 6.05 0.15 6.05 2.66v93.86c0 6.19 6.35 7.38 6.35 11.07v0.59c0 1.48-1.48 2.51-3.4 2.51h-27.15c-2.07-0.01-3.4-1.04-3.4-2.52"></path>
                        <path class="st2" d="m213.22 112.49v-0.59c0-3.69 5.76-4.87 5.76-11.07v-72.61c0-6.64-5.76-8.12-5.76-11.21v-0.59c0-1.48 1.18-2.21 2.95-2.95l18.6-9.15c3.84-1.91 6.05 0.15 6.05 2.66v93.86c0 6.19 6.35 7.38 6.35 11.07v0.59c0 1.48-1.47 2.51-3.4 2.51h-27.16c-2.06-0.01-3.39-1.04-3.39-2.52"></path>
                        <path class="st2" d="m129.37 140.02h8.79c1.34 0 2.51 0.18 3.5 0.52 0.98 0.35 1.8 0.82 2.45 1.42s1.13 1.3 1.46 2.1c0.32 0.8 0.49 1.65 0.49 2.56 0 0.83-0.15 1.58-0.45 2.26-0.3 0.67-0.66 1.24-1.09 1.71s-0.9 0.84-1.4 1.12c-0.5 0.29-0.96 0.46-1.38 0.51 0.54 0.08 1.14 0.24 1.81 0.49 0.66 0.25 1.27 0.62 1.85 1.11 0.57 0.49 1.05 1.13 1.44 1.92s0.58 1.77 0.58 2.94c0 1.4-0.25 2.56-0.76 3.48s-1.19 1.66-2.06 2.24c-0.87 0.57-1.9 0.97-3.09 1.2-1.19 0.24-2.46 0.35-3.81 0.35h-8.32v-25.93zm8.24 10.8c0.57 0 1.15-0.07 1.71-0.21 0.57-0.14 1.09-0.37 1.56-0.68 0.46-0.31 0.84-0.71 1.13-1.2 0.28-0.5 0.43-1.09 0.43-1.79 0-0.78-0.14-1.4-0.43-1.89-0.28-0.48-0.66-0.86-1.13-1.13s-0.99-0.45-1.56-0.54-1.14-0.14-1.71-0.14h-4.62v7.58h4.62zm-0.11 11.9c0.67 0 1.37-0.04 2.09-0.11 0.73-0.08 1.4-0.26 2.01-0.55 0.61-0.28 1.11-0.7 1.49-1.26 0.39-0.55 0.58-1.32 0.58-2.31 0-0.93-0.18-1.68-0.56-2.25-0.37-0.57-0.85-1.03-1.44-1.36s-1.22-0.56-1.92-0.68-1.38-0.18-2.03-0.18h-4.74v8.71h4.52z"></path>
                        <path class="st2" d="m167.65 140.02h3.81l10.15 25.92h-4.16l-2.68-7.23h-10.65l-2.68 7.23h-3.93l10.14-25.92zm5.99 15.55l-4.2-11.39-4.23 11.39h8.43z"></path>
                        <polygon class="st2" points="192.76 140.02 196.53 140.02 210.68 160.27 210.68 140.02 214.33 140.02 214.33 165.94 210.6 165.94 196.41 145.66 196.41 165.94 192.76 165.94"></polygon>
                        <polygon class="st2" points="228.01 140.02 231.7 140.02 231.7 151.8 242.54 140.02 246.82 140.02 237.18 150.59 247.99 165.94 243.52 165.94 234.65 153.24 231.7 156.42 231.7 165.94 228.01 165.94"></polygon>
                        </svg>