<svg xmlns:xlink="http://www.w3.org/1999/xlink" xmlns="http://www.w3.org/2000/svg" width="133.999" height="120" viewBox="0 0 133.999 120">
  <g id="Grupo_14025" data-name="Grupo 14025" transform="translate(-466 -2750)">
    <circle id="Elipse_31" data-name="Elipse 31" cx="60" cy="60" r="60" transform="translate(466 2750)" fill="#fdda00"/>
    <path id="Caminho_6617" data-name="Caminho 6617" d="M1172.1,519.757c6.417.327,13.01.2,19.435.07,4.407-.088,12.812-1.083,12.148-7.521-.318-3.088-3.414-4.119-6.809-4.413-2.952-.256-6.131.047-7.913.041q-6.548-.021-13.1-.026c-3.632,0-8.4-.545-11.118,2.5C1159.594,516.2,1167.365,519.516,1172.1,519.757Zm-6.248-6.7c.641-2.99,6.527-2.4,8.644-2.4,2.281-.008,4.563.011,6.844.017,3.42.008,6.857-.19,10.286-.354-.879,2.057.728,4.609,3.048,5.388a4.748,4.748,0,0,0,3.088-.092l.026.015a18.861,18.861,0,0,1-5.093,1.131,81.86,81.86,0,0,1-9.662.294C1180.627,517.04,1164.632,518.756,1165.853,513.055Zm57.743,6.7c6.416.327,13.011.2,19.435.07,4.407-.088,12.812-1.083,12.148-7.521-.319-3.088-3.414-4.119-6.81-4.413-2.952-.256-6.131.047-7.913.041q-6.548-.021-13.1-.026c-3.633,0-8.4-.545-11.119,2.5C1211.09,516.2,1218.861,519.516,1223.6,519.757Zm-6.248-6.7c.641-2.99,6.527-2.4,8.644-2.4,2.281-.008,4.563.011,6.844.017,3.42.008,6.858-.19,10.286-.354-.879,2.057.728,4.609,3.047,5.388a4.748,4.748,0,0,0,3.088-.092l.026.015a18.856,18.856,0,0,1-5.093,1.131,81.851,81.851,0,0,1-9.661.294C1232.123,517.04,1216.128,518.756,1217.349,513.055Zm33.369,22.146c-4.285-.694-8.8,1.88-12.716,3.17a87.668,87.668,0,0,1-23.373,4.307,84.574,84.574,0,0,1-23.662-2.275c-6.059-1.462-11.971-4.821-18.124-5.7-5.586-.8-10.419.876-12.9,5.6a11.6,11.6,0,0,0,.2,12.955c5.424,7.9,19.746,9.318,28.2,10.6a122.766,122.766,0,0,0,39.552-.34,95.155,95.155,0,0,0,18.882-5.283c2.8-1.124,5.314-1.671,8.06-3.132a13.594,13.594,0,0,0,2.352-1.464,7.747,7.747,0,0,0,2.678-4.444C1261.089,543.422,1256.4,536.12,1250.717,535.2Zm-88.926,13.058c-.6-3.827,2.726-8.983,6.731-9.451a23.313,23.313,0,0,1,2.644-.144v17.057c-.4-.135-.815-.238-1.216-.379C1166.347,554.068,1162.467,552.543,1161.791,548.259Zm24.139,11.21c-3.458-.623-6.9-1.4-10.278-2.348-.179-.048-.353-.116-.532-.166V538.96c4.724.652,9.369,2.308,13.837,3.863v17.1C1187.948,559.774,1186.935,559.649,1185.93,559.468Zm6.98,1V544.131a58.548,58.548,0,0,0,16.8,2.555v14.488A117.411,117.411,0,0,1,1192.911,560.469Zm20.757.493V546.627a89.878,89.878,0,0,0,18.7-2.508c.027-.006.054-.015.081-.022v13.333a1.975,1.975,0,0,0,.181.85A115.114,115.114,0,0,1,1213.667,560.963Zm35.35-8.131c-4.236,1.442-8.3,3.33-12.617,4.539V542.956c4.071-1.3,8.225-2.842,12.3-3.322a6.716,6.716,0,0,1,5.254,1.389,8.648,8.648,0,0,1,2.31,4.793C1257.318,550.773,1252.441,551.665,1249.017,552.831Z" transform="translate(-660.066 2290.103)" fill="#231f20"/>
  </g>
</svg>