<svg xmlns:xlink="http://www.w3.org/1999/xlink" xmlns="http://www.w3.org/2000/svg" width="125.604" height="123.503" viewBox="0 0 125.604 123.503">
  <g id="Grupo_14026" data-name="Grupo 14026" transform="translate(-754 -2746.497)">
    <circle id="Elipse_30" data-name="Elipse 30" cx="60" cy="60" r="60" transform="translate(754 2750)" fill="#fdda00"/>
    <g id="Grupo_13940" data-name="Grupo 13940" transform="translate(-343.01 2346.36)">
      <path id="Caminho_6638" data-name="Caminho 6638" d="M1222.4,449.285c-.756-1.851-2.623-1.258-4.093-1.744-.937-.31-1.224-1.546-1.448-2.384a5.98,5.98,0,0,1-.495-2.855c1.8-6.754-4.194-10.936-9-14.243-1.073-.738-2.037-1.471-.431-2.3a12.629,12.629,0,0,0,6.057-7.55c.944-3.321-1.7-5.531-4.2-7.17-2.949-1.935-6.171-3.633-9.27-5.3a75.558,75.558,0,0,0-10.254-4.9c-5.316-1.9-8.806.065-10,5.553a58.354,58.354,0,0,1-2.647,9.388c-1.246,3.1-1.223,3-4.342,1.622-4.809-2.124-9.717-3.148-14.94-1.271-2.967,1.066-5.208,3.347-4.846,6.7a1.813,1.813,0,0,1-.491,1.65c.049.073.1.134.151.213l.184.307c.574.767,1.123,1.551,1.673,2.345a4.133,4.133,0,0,1,1.108.947,61.118,61.118,0,0,0,17.368,13.855c10.418,5.431,23.612,7.167,35.016,4.08l.371-.1c1.475-.419,2.772-1.187,4.2-1.63,1.058-.327,2.412-.489,2.939.735.855,1.983,1.207,3.182-.251,4.235a35.035,35.035,0,0,0-6.194,6.046c-1.6,1.912-2.938,4.552-5.031,5.987-1.857,1.274-2.812-1.781-3.742-2.948a14.294,14.294,0,0,0-9.837-5.563c-3.4-.3-7.55.144-10.506,1.9a15.809,15.809,0,0,0-5.78,6.722,5.077,5.077,0,0,1-2.214,2.6c-1.489.636-3.1.35-4.6.787-.892.26-2.118,1.392-2.587-.079a16.207,16.207,0,0,0-1.22-3.643,11.1,11.1,0,0,0-2.33-2.734,17.506,17.506,0,0,0-6.239-3.335,18.774,18.774,0,0,0-13.8,1.161,16.475,16.475,0,0,0-6.448,5.662c-.682,1.044-1.334,1.648-2.35.366-3.068-3.871-6.116-7.763-10.356-10.48a1.247,1.247,0,0,1-.636-.929,4.38,4.38,0,0,1-3.261-1.021,3.34,3.34,0,0,1-.945.045,8.184,8.184,0,0,0-4.642.909,3.958,3.958,0,0,0-.56,6.537c.7.556,1.824,1.182,2.553.319a4.175,4.175,0,0,1-.414-1.26,5.823,5.823,0,0,1-.724-.431c-1.5-1.27-1.387-3.107.484-3.9a6.5,6.5,0,0,1,2.151-.424,1.675,1.675,0,0,1,1.087.225,4.313,4.313,0,0,1,.7-.059,3.562,3.562,0,0,1,2.849,1.259c.074.016.147.025.223.046a3.837,3.837,0,0,1,2.275,1.773,56.912,56.912,0,0,1,5.754,5.857c1.692,1.993,3.435,3.957,3.768,6.649a15.211,15.211,0,0,0,1.82,6.089,14.056,14.056,0,0,0,9.534,6.387,19.08,19.08,0,0,0,10.421-.956,18.377,18.377,0,0,0,3.664-1.879,15.325,15.325,0,0,0,3.776-3.549c1.116-1.5,1.366-3.439,2.52-4.914a6.835,6.835,0,0,1,4.15-2.206,4.583,4.583,0,0,1,4.3,1.167,5.987,5.987,0,0,1,.81,2.066c2.28,6.587,9.807,9.723,16.276,7.905,3.615-1.016,7.327-1.891,10.014-4.935,1.7-1.927,3.176-3.9,3.609-6.5a8.023,8.023,0,0,1,1.922-3.888c2.968-3.539,5.707-7.277,9.093-10.445a9.462,9.462,0,0,1,1.264-1.048,3.571,3.571,0,0,1,2.8-1.207,4.35,4.35,0,0,1,.651.053c.109-.4.454-.538,1.257-.059a.848.848,0,0,1,.477.807,3.7,3.7,0,0,1,1.19,1.857,1.5,1.5,0,0,0,.14-.087A2.547,2.547,0,0,0,1222.4,449.285Zm-43.219-34.321c.047-.261.107-.53.176-.809.714-2.9,1.149-5.872,2.365-8.624.643-1.454,1.81-2.9,3.508-3.073,3.21-.319,6.949,2.126,9.709,3.534,3.517,1.794,6.907,3.823,10.289,5.856,2.115,1.271,4.571,2.566,6.131,4.54,1.461,1.85-1.687,5.284-2.917,6.567a12.678,12.678,0,0,1-12.739,3,56.862,56.862,0,0,1-14.83-6.623A3.783,3.783,0,0,1,1179.177,414.965Zm-2.47,6.2a1.6,1.6,0,0,1,.953-.932c1.045-.326,2.128.728,2.916,1.265a33.543,33.543,0,0,0,7.107,3.4c2.546.968,5.081,2.06,7.694,2.836,1.257.373,4.226.352,4.114,2.281-.076,1.287-1.74,1.352-2.7,1.276a48.023,48.023,0,0,1-12.313-2.42,21.166,21.166,0,0,1-6.109-2.95,4.839,4.839,0,0,1-1.872-2.55A3.736,3.736,0,0,1,1176.707,421.16Zm36.055,20.883c-4.16,3.025-9.708,2.979-14.585,3.09-13.08.3-23.294-2.979-32.375-10.008a58.129,58.129,0,0,1-6.989-6.2c-1.528-1.641-3.378-3.412-3.938-5.666a4,4,0,0,1,.3-2.809c2.956-5.931,13.42-3.009,17.593-.508,1.05.629,1.787,1.21,1.644,2.667-.2,2.039.888,3.533,2.5,4.764,5.9,4.5,14.657,5.956,21.9,5.683,1.343-.051,2.7-.3,2.9-1.851.981-7.783,10.673,2.308,12.427,4.809a3.653,3.653,0,0,1,.8,2.086A4.848,4.848,0,0,1,1212.762,442.042Zm-50.636,24.882c-.312,4.474-4.066,8.8-8.23,10.674a15.635,15.635,0,0,1-14.08-.4c-.077-.045-.153-.09-.229-.136-3.61-2.209-5.852-5.933-5.032-10.237a12.742,12.742,0,0,1,4.522-7.541c5.651-4.476,16.031-4.064,20.883,1.461A8.267,8.267,0,0,1,1162.126,466.924Zm36.87,4.425c-4.549,5.285-13.857,7.215-19.875,3.417a10.382,10.382,0,0,1-2.511-2.216,10.531,10.531,0,0,1-1.872-3.554,10.305,10.305,0,0,1,2.37-10.085c6.3-6.9,18.88-5.84,23.239,2.721A8.364,8.364,0,0,1,1199,471.349Z"/>
      <path id="Caminho_6639" data-name="Caminho 6639" d="M1146.218,554.723c7.813,6.356,19.806,8.788,29.461,5.78a17.013,17.013,0,0,0,7.517-5.009c1.072-1.188,1.95-2.5,2.917-3.767.9-1.178,1.827-.624,2.848.057,3.7,2.465,7.264,5.278,11.481,6.825A18.875,18.875,0,0,0,1214.3,558c4.807-2.049,7.967-5.659,11.407-9.428a1.853,1.853,0,0,0,.518-1.629c-.118-.285-.441-.423-1.067-.226a15.21,15.21,0,0,1-8.628.54,14.546,14.546,0,0,1-5.06-2.984c-3.112-2.555-6.155-5.771-10.485-5.777-4.439-.006-9.544,1.138-12.876,4.223-1.228,1.138-2.005-.91-2.842-1.57-3.535-2.785-8.491-2.577-12.642-1.6-4.785,1.121-9.031,3.646-13.2,6.145a32.12,32.12,0,0,1-7.163,3.524,12.175,12.175,0,0,1-3.956.561c-1.053-.044-2.793-.713-3.792-.283C1142.123,550.52,1145.23,553.919,1146.218,554.723Zm-.763-3.373c.268-.918,2.449-.272,3.113-.27a14.845,14.845,0,0,0,4.384-.679,31.832,31.832,0,0,0,7.824-3.992c6.329-4.093,17.215-10.375,23.928-3.693.911.907,1.868,2.516,3.395,1.922,1.42-.551,2.518-1.928,3.864-2.654a16.2,16.2,0,0,1,12.879-1,16.667,16.667,0,0,1,5.064,3.647,17.027,17.027,0,0,0,6.037,3.548,20.977,20.977,0,0,0,3.971.873c1.186.151,3.505-.04,2,1.676-4.989,5.687-13.106,9.284-20.575,6.7A29.187,29.187,0,0,1,1190,550.406c-.6-.618-2.145-2.8-3.189-2.232a1.688,1.688,0,0,0-.572.649,31.89,31.89,0,0,1-4.442,6.341c-6.371,6.274-16.534,5.689-24.468,3.262a35.627,35.627,0,0,1-9.269-4.192C1147.425,553.806,1145.17,552.325,1145.455,551.351Z" transform="translate(-14.204 -58.458)"/>
      <path id="Caminho_6640" data-name="Caminho 6640" d="M1168.017,500.527a13.114,13.114,0,0,0-8.41,4.229c-1.873,2.134-3.273,5.378-2.356,8.22,1.772,5.494,9.123,6.27,13.665,4.409,3.06-1.254,6.173-3.194,7.6-6.31C1181.639,504.231,1173.86,499.956,1168.017,500.527Zm9.649,8.992c-.989,4.131-6.042,7.262-10.756,7.6-3.28.237-6.4-.875-7.861-3.943a5.506,5.506,0,0,1-.226-3.819c1.3-4.7,6.364-7.9,11.127-7.595,3.536.23,7.864,2.141,7.891,6.241A6.307,6.307,0,0,1,1177.666,509.519Z" transform="translate(-19.838 -42.394)"/>
      <path id="Caminho_6641" data-name="Caminho 6641" d="M1241.355,498.573a12.3,12.3,0,0,0-8.638-.393c-3.984,1.335-8.146,3.888-8.795,8.4a7.573,7.573,0,0,0,5.7,8.6,13.433,13.433,0,0,0,4.575.189c5.592-.594,12.982-3.451,12.142-10.371A8,8,0,0,0,1241.355,498.573Zm-.813,13.383c-3.3,1.85-8.479,3.247-12.04,1.364-4.839-2.559-2.6-8.829.705-11.583a11.177,11.177,0,0,1,7.7-2.741c3.084.185,6.125,1.779,7.21,4.817C1245.458,507.565,1243.537,510.277,1240.542,511.956Z" transform="translate(-48.094 -41.171)"/>
      <path id="Caminho_6642" data-name="Caminho 6642" d="M1172.513,511.225a4.32,4.32,0,0,0-2.872-.944,5.25,5.25,0,0,0-3.553,1.34,4.174,4.174,0,0,0,.419,5.95C1170.309,520.76,1176.553,514.731,1172.513,511.225Zm-2.559,3.9c-.318.022-.485-.228-.5-.561a.705.705,0,0,1,.188-.545c.322-.2.585-.02.679.314A.56.56,0,0,1,1169.954,515.124Z" transform="translate(-23.246 -46.537)"/>
      <path id="Caminho_6643" data-name="Caminho 6643" d="M1240.189,506.039a5.578,5.578,0,0,0-4.177,1.446,3.763,3.763,0,0,0-.28,5.21,4.266,4.266,0,0,0,3.746,1.265c2.1-.317,4.608-2.334,4.547-4.621a3.209,3.209,0,0,0-.171-.97A3.9,3.9,0,0,0,1240.189,506.039Zm-.3,4.153c-.519-.023-.612-.468-.493-.858a.921.921,0,0,1,.562-.576c.457-.072.668.273.7.7C1240.574,509.9,1240.319,510.21,1239.89,510.192Z" transform="translate(-52.731 -44.741)"/>
    </g>
  </g>
</svg>