<svg xmlns:xlink="http://www.w3.org/1999/xlink" xmlns="http://www.w3.org/2000/svg" width="185.183" height="126.929" viewBox="0 0 185.183 126.929">
  <g id="Grupo_14027" data-name="Grupo 14027" transform="translate(-1009 -2746.11)">
    <circle id="Elipse_29" data-name="Elipse 29" cx="60" cy="60" r="60" transform="translate(1042 2750)" fill="#fdda00"/>
    <g id="Grupo_13938" data-name="Grupo 13938" transform="translate(-57.352 2356.538)">
      <g id="Grupo_13937" data-name="Grupo 13937" transform="translate(1066.352 389.572)">
        <path id="Caminho_6628" data-name="Caminho 6628" d="M1242.608,541.072a13.56,13.56,0,0,1-5.124,12.134c-5.008,4.225-12.467,1.531-15.852-3.281,2.418-.553,3.188-2.348,3.914-4.973,1.877-6.8,3.592,1.52,6.551-.633,2.175-1.588,1.219-7.737,4.938-3.535C1238.659,542.626,1240.927,542.315,1242.608,541.072Z" transform="translate(-1130.821 -451.752)" fill="#191717"/>
        <path id="Caminho_6629" data-name="Caminho 6629" d="M1257.992,493.561a4.518,4.518,0,0,1-.955,2.832c-1.094,1.428-3.822,2.878-5.02.679a5.907,5.907,0,0,1-.759-2.671,1.812,1.812,0,0,1,.771-1.611,2.99,2.99,0,0,1,3.1-1.8C1256.357,491.2,1257.969,492.134,1257.992,493.561Z" transform="translate(-1143.12 -431.663)" fill="#191717"/>
        <path id="Caminho_6630" data-name="Caminho 6630" d="M1233.053,535.636c2.372-.334,5.089,4.57,7.483,1.831a.913.913,0,0,1,.76-.322,1.246,1.246,0,0,1,.668-.15c.058,0,.115.011.161.011a1.076,1.076,0,0,1,.909.956c.426,6.344-1.5,15.023-8.842,16.946-6.216,1.622-12.928-.265-15.921-6.275a.746.746,0,0,1-.068-.345.715.715,0,0,1,.46-1.186c5.3-.7,2.579-8.2,7.069-8.634,2.037-.206,3.776,4.225,4.881.9C1230.97,538.3,1231.6,535.844,1233.053,535.636Zm8.059,3.891c-1.681,1.243-3.949,1.554-5.572-.288-3.719-4.2-2.763,1.946-4.938,3.535-2.959,2.153-4.674-6.171-6.551.633-.725,2.625-1.5,4.421-3.914,4.973,3.384,4.812,10.844,7.506,15.852,3.281A13.559,13.559,0,0,0,1241.112,539.527Z" transform="translate(-1129.325 -450.207)" fill="#191717"/>
        <path id="Caminho_6631" data-name="Caminho 6631" d="M1197.417,510.286c.576,1.428-.288,3.488-1.381,4.421a3.357,3.357,0,0,1-4.444-.184,3.21,3.21,0,0,1-.311-4.144.878.878,0,0,1,.818-.357,3.38,3.38,0,0,1,.691-.656,3.482,3.482,0,0,1,2.751-.771A2.67,2.67,0,0,1,1197.417,510.286Z" transform="translate(-1117.968 -438.96)" fill="#191717"/>
        <path id="Caminho_6632" data-name="Caminho 6632" d="M1245.531,423.83c-6.159-1.474-12.583-1.785-18.788-3.155a122.1,122.1,0,0,1-21.654-7.437c-11.189-4.777-21.62-11.558-32.567-16.888-7.483-3.638-20.757-7.621-28.412-2.187-2.269-2.924-5.284-4.812-9.061-4.57-13.768.909-16.634,15.541-18.212,26.65-1.266,8.98-1,17.867-5.18,26.2a73.276,73.276,0,0,1-14.632,19.593,123.882,123.882,0,0,1-20.676,16.267c-3.914,2.463-7.345,4.766-8.611,8.427-1.554,3.028-2.383,7.425.725,9.912,3.074,2.452,8.416.759,11.5-.657a96.668,96.668,0,0,0,15.611-9.405c4.974-3.5,8.957-8.427,13.8-11.984-.461,3.131-2.464,6.954-3.373,9.544-1.45,4.075-3.73,7.713-5.756,11.512-2.164,4.064-8.427,10.281-5.18,14.955,3.339,4.824,9.29.656,12.444-2.1a44.205,44.205,0,0,0,6.586-7.54,52.636,52.636,0,0,0,4.156-7.321c-.542,5.456-1.623,10.764-.807,16.289.449,3.063.932,6.781,5.169,6.551,3.833-.219,5.145-4.893,5.986-8.013,1.666-6.179,1.309-13.169,1.082-19.555q-.978-1.388-1.875-2.769a135.248,135.248,0,0,1-.484,17.236,28.466,28.466,0,0,1-2.072,8.4q-1.451,4.473-5.71-.9c-.139-1.37-.254-2.705-.473-4.075-.473-3.05.529-6.378.933-9.406a66.17,66.17,0,0,0,.46-8.127c.011-1.105-1.428-1.013-1.866-.3-1.577,2.636-2.336,5.445-4.1,8.024a78.318,78.318,0,0,1-4.95,6.723,25.058,25.058,0,0,1-8.324,6.8c-4.6,2.176-5.928-2.671-3.879-6.147.737-1.267,1.52-2.51,2.268-3.765a111.576,111.576,0,0,0,8.093-15.738c1.347-3.5,4.006-8.427,3.649-12.26a.963.963,0,0,0-1.508-.679c-3.12,1.969-5.307,4.766-8.093,7.149-3.2,2.74-6.493,5.18-9.854,7.724-4.824,3.638-23.082,14.321-23.7,4.443,1.025-7.666,8.07-10.13,13.711-14.263a176.9,176.9,0,0,0,15.357-12.1c7.805-7.137,15.622-16.151,18.557-26.593,3.442-12.225,1.888-25.637,7.034-37.414,3.35-7.679,13.377-12.594,19.455-4.915,4.03,5.1,3.707,11.247,4.639,17.176.035,4.225-.092,8.185-1.508,12.375-1.831,5.468-5.871,9.785-8.957,14.551a55.085,55.085,0,0,0-6.3,13.285c-1.577,4.962-1.462,10.039-1.981,15.15a123.826,123.826,0,0,0-.45,14.226,3.345,3.345,0,0,1,2.356-1.171c-.215-.473-.425-.949-.628-1.428-.023-9.613.714-19.317,3.729-28.286a.887.887,0,0,0,1.439-.172c3-5.882,11.823-6.078,16.543-2.613,3.6,2.648,5.41,7.541,7.068,11.443,1.416,3.339,2.256,12.3,6.976,11.294a.565.565,0,0,0,.334-.023,4.167,4.167,0,0,0,1.013-.495l.208-.1a.932.932,0,0,0,.219-.206.175.175,0,0,0,.046-.035c.023-.023.046-.035.057-.057,2.6-2.464.725-8.013-.023-10.971a76.922,76.922,0,0,1-2.279-13.515,9.261,9.261,0,0,1,7.61-9.693c3.707-.737,4.282,1.416,6.044,2.959a.544.544,0,0,0,.1.126c.068.046.138.092.218.138.978.645,2.5-.518,1.612-1.531-2.037-2.349-3.326-3.8-6.631-3.983-3.453-.2-6.2,1.888-8.4,4.283-2.935,3.166-2.485,7.172-2.106,11.132.414,4.421,4.87,15,2.625,19.605a.943.943,0,0,0-.288.1c-2.372,1.347-6.4-12.077-7.08-13.734a22.468,22.468,0,0,0-7.184-9.118c-4.939-3.569-13.561-2.026-17.279,2.821a49.583,49.583,0,0,1,4.052-8.139c3.477-5.595,7.54-10.154,9.843-16.439a28.005,28.005,0,0,0,1.485-7.714c3.408,3.063,6.562,2.752,11.409,4.214,7.92,2.406,14.874,6.136,20.365,12.422,4.743,5.422,7.978,12.329,11.719,18.489.313,1.061.586,2.124.84,3.187a2.412,2.412,0,0,1,2.6,1.466c.571,1.173,1.073,2.375,1.523,3.595,2.67,4.566,5.274,9.168,8,13.694,3.051,5.043,16.279,21.148,20.342,9.037,1.773-5.3-1.612-9.785-3.822-14.332-1.29-2.648-2.395-5.4-3.88-7.944-.61-1.059-2.164-3.143-3.131-5.1a40.191,40.191,0,0,0,14.747,7.609c5.042,1.393,10.913,2.164,14.045-2.912,2.878-4.686-3.488-9.636-6.585-11.812-3-2.118-5.894-4.778-9.129-6.528-2.038-1.094-4.007-2.071-5.918-3.119A91.737,91.737,0,0,0,1233,440.6a32.81,32.81,0,0,0,9.556-.207,10.647,10.647,0,0,0,4.721-2.774C1253.243,433.8,1253.186,425.671,1245.531,423.83Zm1.842,10.372a1.8,1.8,0,0,0-.633.368,1.6,1.6,0,0,0-.334.426c-1.635,1.37-2.981,2.614-5.353,3.132-2.763.6-6.551.046-9.337-.2a54.784,54.784,0,0,1-16.255-3.535,1.332,1.332,0,0,0-1.37,2.245,35.871,35.871,0,0,0,10.326,6.493c5.272,2.2,10.108,6.516,14.724,9.854q3.349,2.574,2.394,7.127a6.291,6.291,0,0,1-6.24,1.807,38.549,38.549,0,0,1-7.54-1.75,36.552,36.552,0,0,1-13.561-8.634,1.266,1.266,0,0,0-2.026.794c-.542,2.36,1.669,5.514,2.763,7.495,3,5.491,6.09,11.143,8.622,16.876,1.727,3.891.53,9.533-4.616,7.587-3.511-1.324-6.343-4.524-8.438-7.495-3.707-5.284-6.711-11.052-10-16.589-3.649-6.159-7.609-12.134-11.213-18.315a57.288,57.288,0,0,0-9.647-12.974c-4.121-3.96-9.325-6.435-14.632-8.381a36.807,36.807,0,0,0-6.6-1.864c-3.753-.6-6.113-.956-8.865-3.638.046-1.52.058-3.027.069-4.535v-.161a1.033,1.033,0,0,0-.414-.909,29.789,29.789,0,0,0-3.949-13.63c7.851-4.674,20.514.012,27.825,3.58,8.461,4.133,16.589,8.9,24.947,13.216a127.773,127.773,0,0,0,28.308,10.684,118.476,118.476,0,0,0,15.139,2.578,13.146,13.146,0,0,1,6.148,1.98C1249.882,429.4,1248.72,432.026,1247.373,434.2Z" transform="translate(-1066.352 -389.572)" fill="#191717"/>
      </g>
    </g>
  </g>
</svg>