<svg xmlns:xlink="http://www.w3.org/1999/xlink" xmlns="http://www.w3.org/2000/svg" width="120" height="131.378" viewBox="0 0 120 131.378">
  <g id="Grupo_14028" data-name="Grupo 14028" transform="translate(-1330 -2738.622)">
    <circle id="Elipse_28" data-name="Elipse 28" cx="60" cy="60" r="60" transform="translate(1330 2750)" fill="#fdda00"/>
    <g id="Grupo_13939" data-name="Grupo 13939" transform="translate(250.328 2362.022)">
      <path id="Caminho_6633" data-name="Caminho 6633" d="M1154.19,427.622a1.07,1.07,0,0,0-.092-.109c-3.725-3.584-6.461-6.7-11.426-8.548-3.711-1.385-7.633-3.543-11.711-3.325-.237-.259-.478-.51-.709-.782a36.66,36.66,0,0,1-3.081-4.159,45.964,45.964,0,0,1,19.556,7.093c3.231,2.114,6.789,3.954,9.8,6.353a28.984,28.984,0,0,1,5.085,5.818,40.174,40.174,0,0,0-5.67-1.887Q1155.065,427.852,1154.19,427.622Zm-4.573-1.294c-6.359-1.943-12.334-4.55-17.212-9.208,3.625,1.32,7.2,2.638,10.815,4.06C1146.126,422.324,1147.792,424.385,1149.618,426.328ZM1123.4,400.846a19.267,19.267,0,0,1-.212-2.139c12.418-2.3,26.811,1.979,36.195,10.031a32.369,32.369,0,0,1,11.3,19.338c.454,2.378.826,4.75,1.1,7.139-1.783-8.363-8.245-16.331-14.205-21.476a45.135,45.135,0,0,0-33.722-10.687C1123.684,402.338,1123.527,401.608,1123.4,400.846Zm48.723,40.82q-.031.735-.079,1.47c-.063-.41-.151-.816-.228-1.222A.5.5,0,0,0,1172.124,441.667ZM1160.767,407c-5.63-5.153-12.335-7.867-19.7-9.493-4.634-1.024-12.869-2.827-17.923-.549,0-1.062.025-2.124.027-3.17,0,.952.016.092.032-1.176,6.942-2.672,14.755-2.738,22.051-1.568,3.873.621,8.068,2.629,11.594,4.316,4.219,2.017,6.82,6.4,9.688,9.881,5.835,7.089,8.247,16.492,8.917,25.507a36.689,36.689,0,0,1-.812,10.246C1174.861,428.2,1170.386,415.812,1160.767,407Zm3.919,24.474c-1.818-7.445-10.873-11.612-16.581-15.411-6.391-4.254-14.014-7.718-21.9-7.023a25.218,25.218,0,0,1-1.929-4.54c4.781.557,9.531.715,14.281,1.686,6.13,1.253,11.347,4.291,16.273,8.03,4.325,3.282,7.546,7.4,10.645,11.8,1.879,2.666,2.781,5.83,3.614,9.014A16.468,16.468,0,0,0,1164.686,431.479Zm12.188,9.618a48,48,0,0,0,.193-14.727c-1.424-9.958-5.178-17.312-11.219-25.161-5.265-6.841-12.043-9.855-20.313-11.935-6.47-1.626-15.957-1.4-22.316,1.9,0-.418.009-.823.011-1.184a.873.873,0,0,0,.288-.63c.006-.119,0-.226,0-.34a12.641,12.641,0,0,1,.594-1.909c7.508-1.582,14.586-3.808,22.5-3.194,9.847.765,19.3,6.1,25.757,13.379,6.35,7.16,8.083,18.41,8.542,27.62.356,7.152.695,21.105-6.227,26.242C1175.341,447.8,1176.325,444.38,1176.874,441.1Zm-85.439-18.235a51.993,51.993,0,0,1,10.066-22.547,44.59,44.59,0,0,1,8.617-7.584c.509-.368,8.808-5.423,10.812-4.136a15.207,15.207,0,0,0-.7,5.465,25.359,25.359,0,0,0-10.187,3.9c-5.7,3.956-9.8,10.072-12.742,16.232a66.546,66.546,0,0,0-5.778,23.2c-.026.309-.063.656-.1.995A40.25,40.25,0,0,1,1091.435,422.862Zm1.249,19.931c.226-3.289.525-6.273.6-7.124a66.43,66.43,0,0,1,4.743-19,42.713,42.713,0,0,1,11.548-16.166,21.579,21.579,0,0,1,9.8-4.7c.3-.069.6-.111.906-.155.132,2.514.469,4.952.7,6.434-18.949,5.951-26.894,26.147-26.037,45.343-.1-.172-.2-.346-.289-.5A25.847,25.847,0,0,1,1092.685,442.793Zm3.954,7.541a71.379,71.379,0,0,1,3.89-26.731c3.256-9.98,11.333-16.335,20.8-19.548a23.554,23.554,0,0,0,1.39,4.274c-3.224,1.563-5.953,4.114-8.859,6.453-4.975,4-7.93,9.558-10.528,15.268a43.974,43.974,0,0,0-2.32,26.326A37.224,37.224,0,0,1,1096.639,450.334Zm6.148,7.681c-2.45-8.747-.833-19.755,2.075-27.3,3.017-7.826,10.168-17.22,18.611-20.791.078.153.159.3.239.454-13.527,10.945-21.1,32-17.158,49.276A7.012,7.012,0,0,1,1102.786,458.015Zm85.432-26.28a28,28,0,0,1-14.059,22.84c.016-.154.034-.31.053-.467,6.433-2.916,8.137-13.608,8.72-19.572,1.115-11.391-.96-23.96-6.228-34.125-4.272-8.248-13.331-13.658-21.878-16.332a41.3,41.3,0,0,0-16.846-1.611c-4.555.44-8.82,2.084-13.2,3.242,3.567-6.342,12.245-8.08,19.321-8.7,6.987-.615,13.107-1,19.494,2.414,5.82,3.108,9.97,7.589,14.2,12.552C1186.908,402.673,1188.676,418.419,1188.218,431.735Z" transform="translate(0 0)" fill="#191717"/>
      <path id="Caminho_6634" data-name="Caminho 6634" d="M1193.079,498.921c-2.758-.951-4.086-2.177-7.225-1.988-2.53.153-6.024,1.787-7.355,4.056-2.018,3.439-2.592,7.237-2.973,11.168-.511,5.263,1.6,17.134-4.668,19.858-2.814-1-1.557-10.163-1.6-12.183-.112-5.509-.58-11.624-3.125-16.61-3.068-6.009-13.182-7.856-18.12-3.258-.5.469-.123,1.451.616,1.145,6.485-2.691,14.059-1.673,16.728,5.605,1.972,5.383,1.988,12.171,1.813,17.833-.105,3.421-.989,9.325,3.743,9.728a1.133,1.133,0,0,0,1.219-1.185c4.933-2.037,4.809-10.427,4.925-14.8.153-5.787-.372-15.657,6.131-18.284,3.258-1.316,5.894-.463,8.792.989a1.307,1.307,0,0,0,1.042-.034A1.107,1.107,0,0,0,1193.079,498.921Z" transform="translate(-30.492 -64.231)" fill="#191717"/>
      <path id="Caminho_6635" data-name="Caminho 6635" d="M1156.885,516.225a4.113,4.113,0,0,0-3.975,1.667,3.053,3.053,0,0,0-.338.658,2.964,2.964,0,0,0-.725,3.032,3.884,3.884,0,0,0,2.47,2.389,3.454,3.454,0,0,0,3.653-.9,5.981,5.981,0,0,0,1.365-3.4A3.1,3.1,0,0,0,1156.885,516.225Z" transform="translate(-32.59 -74.5)" fill="#191717"/>
      <path id="Caminho_6636" data-name="Caminho 6636" d="M1229.431,515.518a2.971,2.971,0,0,0-3.1,1.956,4.46,4.46,0,0,0-.374,1.926,2.026,2.026,0,0,0,.058.429c-.009.175-.013.356-.016.545a2.773,2.773,0,0,0,1.659,2.4c1.834.778,3.789-.658,4.643-2.2C1233.523,518.38,1231.656,515.919,1229.431,515.518Z" transform="translate(-72.225 -74.142)" fill="#191717"/>
      <path id="Caminho_6637" data-name="Caminho 6637" d="M1191.6,581.234a2.585,2.585,0,0,0-1.229,1.62,14.6,14.6,0,0,1-6.462,6.567c-7.477,3.9-12.734-2.686-14.89-8.92-.552-1.594-2.324.9-.789.965l.166.006c-2.862-.041,1.518,7.05,2.185,7.716a13.389,13.389,0,0,0,8.436,3.856c6.968.741,11.157-4.87,14.332-9.983A1.283,1.283,0,0,0,1191.6,581.234Z" transform="translate(-40.982 -108.572)" fill="#191717"/>
    </g>
  </g>
</svg>